<svg xmlns="http://www.w3.org/2000/svg" xmlns:xlink="http://www.w3.org/1999/xlink" version="1.1" x="0px" y="0px" viewBox="0 0 100 100" style="enable-background:new 0 0 100 100;" xml:space="preserve"><path d="M81.6,39.9v-2.4c4.2-0.7,8-3.4,10.1-7.4c1.7-3.4,2-7.2,0.9-10.8c-1.2-3.6-3.6-6.5-7-8.2c-3.3-1.7-7.2-2-10.8-0.9  c-2.5,0.8-4.7,2.3-6.3,4.2c-5.9-3.2-13.5-1.7-17.8,3.8c-2.3,3-3.3,6.7-2.8,10.4c0.1,0.6,0.2,1.2,0.3,1.8c-8-3.3-17.6-1-23.2,6.2  L10.4,55.4c-3.2,4.2-4.7,9.4-4,14.7c0.7,5.3,3.3,10,7.5,13.2l0.2,0.2c0,0,0,0,0,0c3.6,2.8,7.9,4.2,12.2,4.2c5.9,0,11.8-2.6,15.7-7.7  l14.6-18.9c3.2-4.2,4.7-9.4,4-14.7c-0.3-2-0.8-4-1.6-5.8c0.9,0.2,1.9,0.3,2.8,0.3c0.6,0,1.2,0,1.8-0.1c3.5-0.4,6.6-2.1,8.9-4.8  c0.1,0,0.1,0.1,0.2,0.1c1.7,0.9,3.4,1.3,5.2,1.5v2.2c-7,0.8-12.4,6.8-12.4,14c0,5.4,3,10.1,7.7,12.5v4.3c0,0.5,0.2,0.9,0.5,1.3  l2.1,2.2l-2,1.9c-0.7,0.6-0.8,1.7-0.2,2.4l2.3,3.3l-2.2,2.6c-0.7,0.8-0.6,1.9,0.1,2.6l4.5,4.2c0.4,0.3,0.8,0.5,1.3,0.5  c0.5,0,1-0.2,1.3-0.5l4.7-4.7c0.4-0.4,0.6-0.8,0.6-1.3V66.2c4.6-2.4,7.5-7.2,7.5-12.4C93.6,46.7,88.4,40.9,81.6,39.9z M71.5,30.6  c-1-1.1-1.8-2.4-2.2-3.8c-0.7-2.3-0.7-4.7,0.2-6.9c1.4,1.6,2.4,3.5,2.6,5.7C72.4,27.3,72.2,29,71.5,30.6z M28.2,50.8l14.2,10.5  L35,70.8c-1.3,1.7-3.2,2.8-5.3,3c-2.1,0.3-4.2-0.3-5.9-1.6l-1.2-1c-1.7-1.3-2.8-3.2-3-5.3c-0.3-2.1,0.3-4.2,1.6-5.9L28.2,50.8z   M44.9,58.1L30.7,47.6l7.8-10.1c1.6-2,4-3.1,6.4-3.1c1.7,0,3.5,0.5,4.9,1.7l1.2,1c1.7,1.3,2.8,3.2,3,5.3c0.3,2.1-0.3,4.2-1.6,5.9  L44.9,58.1z M53.8,58.8L39.1,77.7c-5.4,7-15.6,8.3-22.6,2.9l-0.2-0.2c-3.4-2.6-5.6-6.4-6.1-10.7c-0.5-4.3,0.6-8.5,3.2-11.9L28,38.9  c2.4-3.1,5.7-5,9.2-5.8c-0.7,0.6-1.4,1.2-1.9,2L17.8,57.5c-2,2.6-2.8,5.7-2.4,9c0.4,3.2,2,6.1,4.6,8.1l1.2,1  c2.2,1.7,4.8,2.5,7.4,2.5c3.6,0,7.2-1.6,9.6-4.7l17.5-22.5c0.6-0.7,1-1.5,1.4-2.3C57.2,52.2,56.1,55.8,53.8,58.8z M63.2,37.1  c-2.7,0.3-5.5-0.4-7.6-2.1c-2.2-1.7-3.6-4.1-3.9-6.9c-0.3-2.7,0.4-5.5,2.1-7.6c2-2.6,5.1-4,8.2-4c1.6,0,3.1,0.4,4.6,1.1  c-1.6,3.3-1.8,6.9-0.7,10.4c0.7,2.3,2,4.3,3.7,5.9C67.8,35.6,65.6,36.8,63.2,37.1z M74.6,32.9c1.2-2.4,1.6-5.1,1.3-7.9  c-0.4-3.3-1.9-6.2-4.3-8.5c1.2-1.3,2.7-2.3,4.4-2.8c1-0.3,2.1-0.5,3.2-0.5c1.6,0,3.2,0.4,4.7,1.2c2.5,1.3,4.3,3.4,5.1,6  s0.6,5.4-0.7,7.9c-1.4,2.8-3.9,4.6-6.7,5.3v-1.5c0-1-0.8-1.9-1.9-1.9s-1.9,0.8-1.9,1.9v1.7C76.8,33.7,75.7,33.4,74.6,32.9z   M83.5,63.3c-0.7,0.3-1.2,1-1.2,1.7v19.2l-2.9,2.9l-1.9-1.7l2-2.3c0.6-0.7,0.6-1.6,0.1-2.3l-2.2-3.2l2.2-2.1  c0.7-0.7,0.8-1.9,0.1-2.6l-2.8-3v-4.8c0-0.8-0.5-1.5-1.2-1.7c-4-1.6-6.5-5.3-6.5-9.6c0-5.1,3.8-9.4,8.7-10.2v5.3  c0,1,0.8,1.9,1.9,1.9s1.9-0.8,1.9-1.9v-5.2c4.7,1,8.2,5.1,8.2,10.1C89.9,58,87.4,61.7,83.5,63.3z"/></svg>